<svg width="34" height="34" viewBox="0 0 34 34" fill="none" xmlns="http://www.w3.org/2000/svg">
<g filter="url(#filter0_b_2733_62)">
<path d="M22.1217 0.333334H11.8967C2.55337 0.333334 0.333374 2.555 0.333374 11.8783V22.105C0.333374 31.445 2.53837 33.6667 11.8784 33.6667H22.105C31.445 33.6667 33.6667 31.4617 33.6667 22.1217V11.8967C33.6667 2.55333 31.4617 0.333334 22.1217 0.333334ZM27.2434 24.1167H24.8117C23.8917 24.1167 23.615 23.3717 21.965 21.7217C20.525 20.3333 19.9167 20.16 19.5517 20.16C19.0484 20.16 18.91 20.2983 18.91 20.9933V23.18C18.91 23.7717 18.7184 24.1183 17.1734 24.1183C15.6742 24.0165 14.2206 23.5605 12.9319 22.7878C11.6432 22.0151 10.5561 20.9477 9.76004 19.6733C7.87063 17.3242 6.55675 14.5657 5.92337 11.6183C5.92337 11.2533 6.06171 10.9233 6.75671 10.9233H9.18837C9.81337 10.9233 10.0384 11.2017 10.2817 11.8433C11.4617 15.3167 13.475 18.3367 14.2917 18.3367C14.605 18.3367 14.7417 18.1983 14.7417 17.4167V13.84C14.6384 12.2083 13.7717 12.07 13.7717 11.48C13.7828 11.3244 13.8542 11.1792 13.9705 11.0753C14.0869 10.9714 14.2392 10.9169 14.395 10.9233H18.215C18.7367 10.9233 18.91 11.1833 18.91 11.8083V16.635C18.91 17.1567 19.135 17.33 19.2917 17.33C19.605 17.33 19.8467 17.1567 20.42 16.5833C21.6515 15.0816 22.6576 13.4085 23.4067 11.6167C23.4838 11.4018 23.6287 11.2178 23.8197 11.0927C24.0107 10.9676 24.2372 10.9081 24.465 10.9233H26.8967C27.625 10.9233 27.78 11.2883 27.625 11.8083C26.7409 13.7891 25.6469 15.6693 24.3617 17.4167C24.1 17.8167 23.995 18.025 24.3617 18.4933C24.6034 18.8583 25.455 19.57 26.0284 20.2467C26.8612 21.078 27.5531 22.0395 28.0767 23.0933C28.285 23.77 27.9367 24.1167 27.2434 24.1167Z" fill="white" fill-opacity="0.53"/>
<path d="M17.1395 24.6172L17.1564 24.6183H17.1734C17.9463 24.6183 18.5202 24.5391 18.8983 24.2871C19.356 23.9822 19.41 23.5214 19.41 23.18V20.9933C19.41 20.8333 19.4183 20.7306 19.4305 20.6647C19.4584 20.6621 19.4976 20.66 19.5517 20.66C19.7053 20.66 20.1873 20.7029 21.6147 22.0784C22.0171 22.481 22.3363 22.8288 22.6053 23.1269C22.6564 23.1835 22.7062 23.239 22.7548 23.2931C22.9583 23.5196 23.1409 23.7229 23.3076 23.8905C23.516 24.1 23.7303 24.2862 23.9774 24.4166C24.2355 24.5529 24.5063 24.6167 24.8117 24.6167H27.2434C27.6522 24.6167 28.0906 24.5171 28.3768 24.1853C28.6804 23.8334 28.6861 23.3733 28.5546 22.9462L28.5426 22.9073L28.5245 22.8708C27.9797 21.7745 27.261 20.7738 26.3962 19.9074C26.1043 19.5651 25.751 19.2193 25.4519 18.9267L25.4204 18.8958C25.0849 18.5674 24.8624 18.3439 24.7786 18.2173L24.7676 18.2007L24.7554 18.1851C24.6494 18.0497 24.6282 17.9867 24.6246 17.9688C24.6256 17.9637 24.63 17.9459 24.6483 17.9086C24.6732 17.8581 24.7111 17.7961 24.7727 17.7017C26.0755 15.9287 27.1848 14.0213 28.0816 12.0121L28.0949 11.9824L28.1042 11.9512C28.1959 11.6436 28.2457 11.2293 28.0005 10.8823C27.7493 10.5268 27.3196 10.4233 26.8967 10.4233H24.4801C24.15 10.4052 23.8225 10.4931 23.5457 10.6745C23.2678 10.8565 23.0558 11.123 22.9409 11.4345C22.2142 13.1699 21.2401 14.7909 20.049 16.2472C19.7715 16.524 19.6031 16.6736 19.4796 16.7566C19.4578 16.7712 19.4387 16.7829 19.4217 16.7923C19.4151 16.7537 19.41 16.7022 19.41 16.635V11.8083C19.41 11.477 19.3702 11.111 19.1566 10.8293C18.9142 10.5097 18.5532 10.4233 18.215 10.4233H14.4039C14.1222 10.4147 13.8479 10.5145 13.6375 10.7024C13.4241 10.8929 13.2934 11.159 13.273 11.4443L13.2717 11.4621V11.48C13.2717 11.7663 13.3825 11.9841 13.4957 12.15C13.5496 12.2289 13.6099 12.3045 13.6613 12.3686L13.6734 12.3837C13.7233 12.4458 13.7689 12.5027 13.8151 12.5655C13.993 12.8076 14.1948 13.1565 14.2417 13.8563V17.4167C14.2417 17.5832 14.235 17.7046 14.2241 17.7927C14.2191 17.7896 14.214 17.7863 14.2086 17.7827C14.1155 17.7213 13.9943 17.6183 13.8482 17.4653C13.5571 17.1603 13.2119 16.7039 12.8454 16.125C12.1142 14.9701 11.3327 13.3827 10.7551 11.6825L10.7523 11.6742L10.7492 11.666C10.6248 11.338 10.4739 11.0085 10.2145 10.7727C9.92887 10.5131 9.57993 10.4233 9.18837 10.4233H6.75671C6.3409 10.4233 5.97118 10.5214 5.71655 10.79C5.46489 11.0554 5.42337 11.3862 5.42337 11.6183V11.6715L5.43453 11.7234C6.08222 14.7374 7.42355 17.5588 9.3519 19.9636C10.1884 21.2939 11.3268 22.4084 12.6748 23.2166C14.0313 24.03 15.5614 24.51 17.1395 24.6172ZM24.6241 17.9633C24.6243 17.9634 24.6247 17.9651 24.6245 17.9683C24.6239 17.9649 24.6239 17.9633 24.6241 17.9633ZM11.8967 0.833334H22.1217C26.8005 0.833334 29.4847 1.40252 31.0427 2.96438C32.6012 4.52662 33.1667 7.2158 33.1667 11.8967V22.1217C33.1667 26.8004 32.5971 29.4846 31.0352 31.0427C29.473 32.6012 26.7842 33.1667 22.105 33.1667H11.8784C7.19964 33.1667 4.51545 32.5971 2.95736 31.0352C1.39887 29.4729 0.833374 26.7842 0.833374 22.105V11.8783C0.833374 7.20817 1.40246 4.52363 2.96463 2.96335C4.52703 1.40284 7.21645 0.833334 11.8967 0.833334Z" stroke="white" stroke-opacity="0.51"/>
</g>
<defs>
<filter id="filter0_b_2733_62" x="-45.2666" y="-45.2667" width="124.533" height="124.533" filterUnits="userSpaceOnUse" color-interpolation-filters="sRGB">
<feFlood flood-opacity="0" result="BackgroundImageFix"/>
<feGaussianBlur in="BackgroundImageFix" stdDeviation="22.8"/>
<feComposite in2="SourceAlpha" operator="in" result="effect1_backgroundBlur_2733_62"/>
<feBlend mode="normal" in="SourceGraphic" in2="effect1_backgroundBlur_2733_62" result="shape"/>
</filter>
</defs>
</svg>
